<?xml version="1.0" encoding="utf-8"?>
<svg xmlns="http://www.w3.org/2000/svg" viewBox="0 0 64 64" fill="#9adbe8"><path d="M 15.65625 4 C 14.320313 4 13.0625 4.519531 12.121094 5.464844 L 3.464844 14.121094 C 2.519531 15.066406 2 16.320313 2 17.65625 L 2 57 C 2 58.652344 3.347656 60 5 60 L 45 60 C 46.652344 60 48 58.652344 48 57 L 48 47.992188 C 48.339844 47.808594 48.664063 47.605469 48.988281 47.402344 L 57.292969 55.707031 C 58.039063 56.453125 59.019531 56.828125 60 56.828125 C 60.980469 56.828125 61.960938 56.453125 62.707031 55.707031 C 64.199219 54.214844 64.199219 51.785156 62.707031 50.292969 L 54.402344 41.988281 C 56.039063 39.375 57 36.300781 57 33 C 57 26.515625 53.351563 20.875 48 18.007813 L 48 7 C 48 5.347656 46.652344 4 45 4 Z M 16 6 L 45 6 C 45.550781 6 46 6.449219 46 7 L 46 17.113281 C 44.132813 16.40625 42.113281 16 40 16 C 30.625 16 23 23.625 23 33 C 23 42.375 30.625 50 40 50 C 42.113281 50 44.132813 49.59375 46 48.886719 L 46 57 C 46 57.550781 45.550781 58 45 58 L 5 58 C 4.449219 58 4 57.550781 4 57 L 4 18 L 13 18 C 14.652344 18 16 16.652344 16 15 Z M 14 6.5 L 14 15 C 14 15.550781 13.550781 16 13 16 L 4.5 16 C 4.613281 15.832031 4.738281 15.675781 4.878906 15.535156 L 13.535156 6.878906 C 13.679688 6.734375 13.835938 6.609375 14 6.5 Z M 40 18 C 48.269531 18 55 24.730469 55 33 C 55 41.269531 48.269531 48 40 48 C 31.730469 48 25 41.269531 25 33 C 25 24.730469 31.730469 18 40 18 Z M 40 21 C 33.382813 21 28 26.382813 28 33 C 28 39.617188 33.382813 45 40 45 C 46.617188 45 52 39.617188 52 33 C 52 26.382813 46.617188 21 40 21 Z M 13 22 C 12.445313 22 12 22.445313 12 23 C 12 23.554688 12.445313 24 13 24 L 17 24 C 17.554688 24 18 23.554688 18 23 C 18 22.445313 17.554688 22 17 22 Z M 21 22 C 20.445313 22 20 22.445313 20 23 C 20 23.554688 20.445313 24 21 24 L 23 24 C 23.554688 24 24 23.554688 24 23 C 24 22.445313 23.554688 22 23 22 Z M 40 23 C 45.515625 23 50 27.484375 50 33 C 50 38.515625 45.515625 43 40 43 C 34.484375 43 30 38.515625 30 33 C 30 27.484375 34.484375 23 40 23 Z M 40 25 C 39.445313 25 39 25.445313 39 26 C 39 26.554688 39.445313 27 40 27 C 42.410156 27 44.578125 28.433594 45.519531 30.648438 C 45.683594 31.027344 46.054688 31.253906 46.441406 31.253906 C 46.574219 31.253906 46.707031 31.230469 46.832031 31.175781 C 47.34375 30.960938 47.578125 30.371094 47.359375 29.863281 C 46.101563 26.910156 43.210938 25 40 25 Z M 13 26 C 12.445313 26 12 26.445313 12 27 C 12 27.554688 12.445313 28 13 28 L 22 28 C 22.554688 28 23 27.554688 23 27 C 23 26.445313 22.554688 26 22 26 Z M 13 32 C 12.445313 32 12 32.445313 12 33 C 12 33.554688 12.445313 34 13 34 L 20 34 C 20.554688 34 21 33.554688 21 33 C 21 32.445313 20.554688 32 20 32 Z M 13 36 C 12.445313 36 12 36.445313 12 37 C 12 37.554688 12.445313 38 13 38 L 20 38 C 20.554688 38 21 37.554688 21 37 C 21 36.445313 20.554688 36 20 36 Z M 53.234375 43.644531 L 61.292969 51.707031 C 62.007813 52.421875 62.007813 53.578125 61.292969 54.292969 C 60.578125 55.007813 59.421875 55.007813 58.707031 54.292969 L 50.644531 46.234375 C 51.597656 45.464844 52.464844 44.597656 53.234375 43.644531 Z M 7 52 C 6.445313 52 6 52.445313 6 53 L 6 55 C 6 55.554688 6.445313 56 7 56 C 7.554688 56 8 55.554688 8 55 L 8 53 C 8 52.445313 7.554688 52 7 52 Z M 12 52 C 11.445313 52 11 52.445313 11 53 L 11 55 C 11 55.554688 11.445313 56 12 56 C 12.554688 56 13 55.554688 13 55 L 13 53 C 13 52.445313 12.554688 52 12 52 Z M 17 52 C 16.445313 52 16 52.445313 16 53 L 16 55 C 16 55.554688 16.445313 56 17 56 C 17.554688 56 18 55.554688 18 55 L 18 53 C 18 52.445313 17.554688 52 17 52 Z M 22 52 C 21.445313 52 21 52.445313 21 53 L 21 55 C 21 55.554688 21.445313 56 22 56 C 22.554688 56 23 55.554688 23 55 L 23 53 C 23 52.445313 22.554688 52 22 52 Z M 27 52 C 26.445313 52 26 52.445313 26 53 L 26 55 C 26 55.554688 26.445313 56 27 56 C 27.554688 56 28 55.554688 28 55 L 28 53 C 28 52.445313 27.554688 52 27 52 Z M 32 52 C 31.445313 52 31 52.445313 31 53 L 31 55 C 31 55.554688 31.445313 56 32 56 C 32.554688 56 33 55.554688 33 55 L 33 53 C 33 52.445313 32.554688 52 32 52 Z M 37 52 C 36.445313 52 36 52.445313 36 53 L 36 55 C 36 55.554688 36.445313 56 37 56 C 37.554688 56 38 55.554688 38 55 L 38 53 C 38 52.445313 37.554688 52 37 52 Z M 42 52 C 41.445313 52 41 52.445313 41 53 L 41 55 C 41 55.554688 41.445313 56 42 56 C 42.554688 56 43 55.554688 43 55 L 43 53 C 43 52.445313 42.554688 52 42 52 Z" fill="#9adbe8"/></svg>
