<?xml version="1.0" encoding="utf-8"?>
<svg xmlns="http://www.w3.org/2000/svg" viewBox="0 0 64 64" fill="#440099"><path d="M 26.828125 6 C 26.027344 6 25.273438 6.3125 24.707031 6.878906 L 22.878906 8.707031 C 22.3125 9.273438 22 10.027344 22 10.828125 L 22 12 L 12.65625 12 C 11.320313 12 10.066406 12.519531 9.121094 13.464844 L 6.296875 16.292969 L 6.292969 16.296875 L 3.464844 19.121094 C 2.519531 20.066406 2 21.320313 2 22.65625 L 2 53 C 2 54.652344 3.347656 56 5 56 L 59 56 C 60.652344 56 62 54.652344 62 53 L 62 22.65625 C 62 21.320313 61.480469 20.066406 60.535156 19.121094 L 57.707031 16.296875 L 57.703125 16.292969 L 54.878906 13.464844 C 53.933594 12.519531 52.679688 12 51.34375 12 L 42 12 L 42 10.828125 C 42 10.027344 41.6875 9.273438 41.121094 8.707031 L 39.292969 6.878906 C 38.726563 6.3125 37.972656 6 37.171875 6 Z M 26.828125 8 L 37.171875 8 C 37.4375 8 37.691406 8.105469 37.878906 8.292969 L 39.707031 10.121094 C 39.890625 10.308594 40 10.566406 40 10.828125 L 40 12 L 24 12 L 24 10.828125 C 24 10.566406 24.105469 10.308594 24.292969 10.121094 L 26.121094 8.292969 C 26.308594 8.105469 26.5625 8 26.828125 8 Z M 12.65625 14 L 51.34375 14 C 52.132813 14 52.90625 14.320313 53.464844 14.878906 L 56 17.414063 L 56 19 C 56 19.554688 56.449219 20 57 20 C 57.429688 20 57.789063 19.726563 57.929688 19.34375 L 59.121094 20.535156 C 59.6875 21.101563 60 21.855469 60 22.65625 L 60 30 L 52 30 C 52 28.898438 51.101563 28 50 28 L 44 28 C 42.898438 28 42 28.898438 42 30 L 22 30 C 22 28.898438 21.101563 28 20 28 L 14 28 C 12.898438 28 12 28.898438 12 30 L 4 30 L 4 22.65625 C 4 21.855469 4.3125 21.101563 4.878906 20.535156 L 6.070313 19.34375 C 6.210938 19.726563 6.570313 20 7 20 C 7.550781 20 8 19.554688 8 19 L 8 17.414063 L 10.535156 14.878906 C 11.09375 14.320313 11.867188 14 12.65625 14 Z M 12 16 C 11.449219 16 11 16.445313 11 17 L 11 19 C 11 19.554688 11.449219 20 12 20 C 12.550781 20 13 19.554688 13 19 L 13 17 C 13 16.445313 12.550781 16 12 16 Z M 17 16 C 16.449219 16 16 16.445313 16 17 L 16 19 C 16 19.554688 16.449219 20 17 20 C 17.550781 20 18 19.554688 18 19 L 18 17 C 18 16.445313 17.550781 16 17 16 Z M 22 16 C 21.449219 16 21 16.445313 21 17 L 21 19 C 21 19.554688 21.449219 20 22 20 C 22.550781 20 23 19.554688 23 19 L 23 17 C 23 16.445313 22.550781 16 22 16 Z M 27 16 C 26.449219 16 26 16.445313 26 17 L 26 19 C 26 19.554688 26.449219 20 27 20 C 27.550781 20 28 19.554688 28 19 L 28 17 C 28 16.445313 27.550781 16 27 16 Z M 32 16 C 31.449219 16 31 16.445313 31 17 L 31 19 C 31 19.554688 31.449219 20 32 20 C 32.550781 20 33 19.554688 33 19 L 33 17 C 33 16.445313 32.550781 16 32 16 Z M 37 16 C 36.449219 16 36 16.445313 36 17 L 36 19 C 36 19.554688 36.449219 20 37 20 C 37.550781 20 38 19.554688 38 19 L 38 17 C 38 16.445313 37.550781 16 37 16 Z M 42 16 C 41.449219 16 41 16.445313 41 17 L 41 19 C 41 19.554688 41.449219 20 42 20 C 42.550781 20 43 19.554688 43 19 L 43 17 C 43 16.445313 42.550781 16 42 16 Z M 47 16 C 46.449219 16 46 16.445313 46 17 L 46 19 C 46 19.554688 46.449219 20 47 20 C 47.550781 20 48 19.554688 48 19 L 48 17 C 48 16.445313 47.550781 16 47 16 Z M 52 16 C 51.449219 16 51 16.445313 51 17 L 51 19 C 51 19.554688 51.449219 20 52 20 C 52.550781 20 53 19.554688 53 19 L 53 17 C 53 16.445313 52.550781 16 52 16 Z M 14 30 L 20 30 L 20 34 L 14 34 Z M 44 30 L 50 30 L 50 34 L 44 34 Z M 4 32 L 12 32 L 12 34 C 12 35.101563 12.898438 36 14 36 L 20 36 C 21.101563 36 22 35.101563 22 34 L 22 32 L 42 32 L 42 34 C 42 35.101563 42.898438 36 44 36 L 50 36 C 51.101563 36 52 35.101563 52 34 L 52 32 L 60 32 L 60 53 C 60 53.550781 59.550781 54 59 54 L 5 54 C 4.449219 54 4 53.550781 4 53 Z M 7 50 C 6.449219 50 6 50.445313 6 51 C 6 51.554688 6.449219 52 7 52 L 49 52 C 49.550781 52 50 51.554688 50 51 C 50 50.445313 49.550781 50 49 50 Z M 53 50 C 52.449219 50 52 50.445313 52 51 C 52 51.554688 52.449219 52 53 52 L 57 52 C 57.550781 52 58 51.554688 58 51 C 58 50.445313 57.550781 50 57 50 Z" fill="#440099"/></svg>
