<?xml version="1.0" encoding="utf-8"?>
<svg xmlns="http://www.w3.org/2000/svg" viewBox="0 0 128 128" fill="#9adbe8"><path d="M 85.5 22.886719 C 80.5 22.899219 75.499219 24.799609 71.699219 28.599609 C 70.499219 29.799609 70.499219 31.700781 71.699219 32.800781 C 72.899219 34.000781 74.800391 34.000781 75.900391 32.800781 C 81.200391 27.500781 89.799609 27.500781 95.099609 32.800781 C 97.699609 35.400781 99.099609 38.800391 99.099609 42.400391 C 99.099609 46.000391 97.699609 49.4 95.099609 52 C 93.899609 53.2 93.899609 55.099219 95.099609 56.199219 C 95.699609 56.799219 96.499219 57.099609 97.199219 57.099609 C 97.899219 57.099609 98.700781 56.799219 99.300781 56.199219 C 106.90078 48.599219 106.90078 36.1 99.300781 28.5 C 95.500781 24.75 90.5 22.874219 85.5 22.886719 z M 42.5 22.900391 C 37.3 22.900391 32.399219 24.899609 28.699219 28.599609 C 21.099219 36.199609 21.099219 48.700781 28.699219 56.300781 L 71.699219 99.300781 C 75.399219 103.00078 80.3 105 85.5 105 C 90.7 105 95.600781 103.00078 99.300781 99.300781 C 106.90078 91.700781 106.90078 79.199609 99.300781 71.599609 L 56.300781 28.599609 C 52.600781 24.899609 47.7 22.900391 42.5 22.900391 z M 42.5 28.900391 C 46.1 28.900391 49.499609 30.300391 52.099609 32.900391 L 57.599609 38.400391 L 38.400391 57.599609 L 32.900391 52.099609 C 30.300391 49.499609 28.900391 46.1 28.900391 42.5 C 28.900391 38.9 30.300391 35.500391 32.900391 32.900391 C 35.500391 30.300391 38.9 28.900391 42.5 28.900391 z M 40.423828 37.423828 A 3.0999999 3 45.001 0 0 38.238281 38.28125 A 3.0999999 3 45.001 0 0 38.308594 42.59375 A 3.0999999 3 45.001 0 0 42.621094 42.664062 A 3.0999999 3 45.001 0 0 42.550781 38.351562 A 3.0999999 3 45.001 0 0 40.423828 37.423828 z M 61.900391 42.699219 L 85.400391 66.199219 L 66.099609 85.300781 L 42.699219 61.900391 L 61.900391 42.699219 z M 64.142578 50.460938 A 3.0999999 3 45.001 0 0 61.955078 51.318359 A 3.0999999 3 45.001 0 0 62.025391 55.630859 A 3.0999999 3 45.001 0 0 66.339844 55.703125 A 3.0999999 3 45.001 0 0 66.269531 51.388672 A 3.0999999 3 45.001 0 0 64.142578 50.460938 z M 74.470703 60.744141 A 3.0999999 3 44.999 0 0 72.285156 61.601562 A 3.0999999 3 44.999 0 0 72.355469 65.916016 A 3.0999999 3 44.999 0 0 76.667969 65.986328 A 3.0999999 3 44.999 0 0 76.597656 61.671875 A 3.0999999 3 44.999 0 0 74.470703 60.744141 z M 53.539062 61.121094 A 3.0999999 3 45.001 0 0 51.351562 61.978516 A 3.0999999 3 45.001 0 0 51.423828 66.291016 A 3.0999999 3 45.001 0 0 55.736328 66.363281 A 3.0999999 3 45.001 0 0 55.666016 62.048828 A 3.0999999 3 45.001 0 0 53.539062 61.121094 z M 89.599609 70.400391 L 95.099609 75.900391 C 97.699609 78.500391 99.099609 81.9 99.099609 85.5 C 99.099609 89.1 97.699609 92.499609 95.099609 95.099609 C 92.499609 97.699609 89.1 99.099609 85.5 99.099609 C 81.9 99.099609 78.500391 97.699609 75.900391 95.099609 L 70.400391 89.599609 L 89.599609 70.400391 z M 30.761719 70.800781 C 29.999219 70.800781 29.249219 71.099219 28.699219 71.699219 C 21.099219 79.299219 21.099219 91.800391 28.699219 99.400391 C 32.499219 103.20039 37.5 105.09961 42.5 105.09961 C 47.5 105.09961 52.500781 103.20039 56.300781 99.400391 C 57.500781 98.200391 57.500781 96.299219 56.300781 95.199219 C 55.100781 93.999219 53.199609 93.999219 52.099609 95.199219 C 46.799609 100.49922 38.200391 100.49922 32.900391 95.199219 C 30.300391 92.599219 28.900391 89.199609 28.900391 85.599609 C 28.900391 81.999609 30.300391 78.6 32.900391 76 C 34.100391 74.7 34.100391 72.799219 32.900391 71.699219 C 32.300391 71.099219 31.524219 70.800781 30.761719 70.800781 z M 63.847656 71.443359 A 3.0999999 3 45.001 0 0 61.662109 72.300781 A 3.0999999 3 45.001 0 0 61.732422 76.613281 A 3.0999999 3 45.001 0 0 66.044922 76.683594 A 3.0999999 3 45.001 0 0 65.974609 72.371094 A 3.0999999 3 45.001 0 0 63.847656 71.443359 z M 88.273438 85.197266 A 3.0999999 3 45.001 0 0 86.085938 86.054688 A 3.0999999 3 45.001 0 0 86.15625 90.369141 A 3.0999999 3 45.001 0 0 90.470703 90.439453 A 3.0999999 3 45.001 0 0 90.398438 86.125 A 3.0999999 3 45.001 0 0 88.273438 85.197266 z" fill="#9adbe8"/></svg>
