<?xml version="1.0" encoding="utf-8"?>
<svg xmlns="http://www.w3.org/2000/svg" viewBox="0 0 64 64" fill="#9adbe8"><path d="M40.52 7.66l2.3 1.26c.349.189.637.473.83.82l1.26 2.3c.267.483.876.658 1.359.391.164-.091.3-.226.391-.391l1.26-2.31c.189-.346.474-.631.82-.82l2.3-1.26c.483-.267.658-.876.391-1.359-.091-.164-.226-.3-.391-.391l-2.3-1.26c-.346-.19-.63-.474-.82-.82l-1.26-2.3c-.267-.483-.876-.658-1.359-.391-.164.091-.3.226-.391.391l-1.26 2.3c-.19.346-.474.63-.82.82l-2.3 1.26c-.483.267-.658.876-.391 1.359.091.164.226.3.391.391L40.52 7.66zM43.78 6.4c.684-.373 1.247-.936 1.62-1.62l.38-.7.38.7c.373.684.936 1.247 1.62 1.62l.7.38-.7.38c-.684.373-1.247.936-1.62 1.62l-.38.7-.38-.7c-.374-.684-.936-1.246-1.62-1.62l-.7-.38L43.78 6.4zM52.52 26.66l2.3 1.26c.349.189.637.473.83.82l1.26 2.3c.267.483.876.658 1.359.391.164-.091.3-.226.391-.391l1.26-2.31c.189-.346.474-.631.82-.82l2.3-1.26c.483-.267.658-.876.391-1.359-.091-.164-.226-.3-.391-.391l-2.3-1.26c-.346-.19-.63-.474-.82-.82l-1.26-2.3c-.267-.483-.876-.658-1.359-.391-.164.091-.3.226-.391.391l-1.26 2.3c-.19.346-.474.63-.82.82l-2.3 1.26c-.483.267-.658.876-.391 1.359.091.164.226.3.391.391L52.52 26.66zM55.78 25.4c.684-.373 1.247-.936 1.62-1.62l.38-.7.38.7c.373.684.936 1.247 1.62 1.62l.7.38-.7.38c-.684.373-1.247.936-1.62 1.62l-.38.7-.38-.7c-.374-.684-.936-1.246-1.62-1.62l-.7-.38L55.78 25.4zM37.52 39.66l2.3 1.26c.349.189.637.473.83.82l1.26 2.3c.267.483.876.658 1.359.391.164-.091.3-.226.391-.391l1.26-2.31c.189-.346.474-.631.82-.82l2.3-1.26c.483-.267.658-.876.391-1.359-.091-.164-.226-.3-.391-.391l-2.3-1.26c-.346-.19-.63-.474-.82-.82l-1.26-2.3c-.267-.483-.876-.658-1.359-.391-.164.091-.3.226-.391.391l-1.26 2.3c-.19.346-.474.63-.82.82l-2.3 1.26c-.483.267-.658.876-.391 1.359.091.164.226.3.391.391L37.52 39.66zM40.78 38.4c.684-.373 1.247-.936 1.62-1.62l.38-.7.38.7c.373.684.936 1.247 1.62 1.62l.7.38-.7.38c-.684.373-1.247.936-1.62 1.62l-.38.7-.38-.7c-.374-.684-.936-1.246-1.62-1.62l-.7-.38L40.78 38.4zM22.52 27.66l2.3 1.26c.349.189.637.473.83.82l1.26 2.3c.267.483.876.658 1.359.391.164-.091.3-.226.391-.391l1.26-2.31c.189-.346.474-.631.82-.82l2.3-1.26c.483-.267.658-.876.391-1.359-.091-.164-.226-.3-.391-.391l-2.3-1.26c-.346-.19-.63-.474-.82-.82l-1.26-2.3c-.267-.483-.876-.658-1.359-.391-.164.091-.3.226-.391.391l-1.26 2.3c-.19.346-.474.63-.82.82l-2.3 1.26c-.483.267-.658.876-.391 1.359.091.164.226.3.391.391L22.52 27.66zM25.78 26.4c.684-.373 1.247-.936 1.62-1.62l.38-.7.38.7c.373.684.936 1.247 1.62 1.62l.7.38-.7.38c-.684.373-1.247.936-1.62 1.62l-.38.7-.38-.7c-.374-.684-.936-1.246-1.62-1.62l-.7-.38L25.78 26.4zM5.52 40.66l2.3 1.26c.349.189.637.473.83.82l1.26 2.3c.267.483.876.658 1.359.391.164-.091.3-.226.391-.391l1.26-2.31c.189-.346.474-.631.82-.82l2.3-1.26c.483-.267.658-.876.391-1.359-.091-.164-.226-.3-.391-.391l-2.3-1.26c-.346-.19-.63-.474-.82-.82l-1.26-2.3c-.267-.483-.876-.658-1.359-.391-.164.091-.3.226-.391.391l-1.26 2.3c-.19.346-.474.63-.82.82l-2.3 1.26c-.483.267-.658.876-.391 1.359.091.164.226.3.391.391L5.52 40.66zM8.78 39.4c.684-.373 1.247-.936 1.62-1.62l.38-.7.38.7c.373.684.936 1.247 1.62 1.62l.7.38-.7.38c-.684.373-1.247.936-1.62 1.62l-.38.7-.38-.7c-.374-.684-.936-1.246-1.62-1.62l-.7-.38L8.78 39.4zM2.52 57.66l2.3 1.26c.349.189.637.473.83.82l1.26 2.3c.267.483.876.658 1.359.391.164-.091.3-.226.391-.391l1.26-2.31c.189-.346.474-.631.82-.82l2.3-1.26c.483-.267.658-.876.391-1.359-.091-.164-.226-.3-.391-.391l-2.3-1.26c-.346-.19-.63-.474-.82-.82l-1.26-2.3c-.267-.483-.876-.658-1.359-.391-.164.091-.3.226-.391.391l-1.26 2.3c-.19.346-.474.63-.82.82l-2.3 1.26c-.483.267-.658.876-.391 1.359.091.164.226.3.391.391L2.52 57.66zM5.78 56.4c.684-.373 1.247-.936 1.62-1.62l.38-.7.38.7c.373.684.936 1.247 1.62 1.62l.7.38-.7.38c-.684.373-1.247.936-1.62 1.62l-.38.7-.38-.7c-.374-.684-.936-1.246-1.62-1.62l-.7-.38L5.78 56.4zM3.999 51c-.15 0-.303-.034-.446-.105-.494-.247-.694-.848-.447-1.342l2-4c.248-.494.848-.692 1.342-.447.494.247.694.848.447 1.342l-2 4C4.719 50.798 4.366 51 3.999 51zM16.001 36c-.323 0-.641-.156-.833-.445-.307-.46-.183-1.08.277-1.387l6-4c.46-.307 1.08-.183 1.387.277s.183 1.08-.277 1.387l-6 4C16.384 35.945 16.191 36 16.001 36zM36.999 36c-.209 0-.419-.065-.599-.2l-4-3c-.442-.331-.532-.958-.2-1.399.331-.442.958-.531 1.399-.2l4 3c.442.331.532.958.2 1.399C37.604 35.862 37.304 36 36.999 36zM48.001 36c-.294 0-.584-.128-.782-.375-.345-.432-.274-1.061.156-1.406l5-4c.433-.346 1.061-.274 1.406.156.345.432.274 1.061-.156 1.406l-5 4C48.44 35.929 48.22 36 48.001 36zM54.001 21c-.367 0-.72-.202-.896-.553l-4-8c-.247-.494-.047-1.095.447-1.342.493-.245 1.094-.047 1.342.447l4 8c.247.494.047 1.095-.447 1.342C54.304 20.966 54.151 21 54.001 21zM41.817 12.941c-.234 0-.469-.081-.658-.248l-1.505-1.317c-.416-.363-.458-.995-.094-1.41.363-.418.995-.46 1.41-.094l1.505 1.317c.416.363.458.995.094 1.41C42.372 12.826 42.096 12.941 41.817 12.941zM38.774 16.419c-.234 0-.469-.081-.658-.247l-1.505-1.316c-.416-.364-.458-.996-.095-1.411.365-.418.996-.459 1.411-.095l1.505 1.316c.416.364.458.996.095 1.411C39.329 16.304 39.053 16.419 38.774 16.419zM35.73 19.897c-.234 0-.469-.081-.658-.247l-1.505-1.316c-.416-.364-.458-.996-.095-1.411.364-.418.996-.458 1.411-.095l1.505 1.316c.416.364.458.996.095 1.411C36.285 19.782 36.009 19.897 35.73 19.897zM32.687 23.376c-.234 0-.469-.081-.658-.248l-1.505-1.317c-.416-.363-.458-.995-.094-1.41.362-.418.995-.46 1.41-.094l1.505 1.317c.416.363.458.995.094 1.41C33.242 23.261 32.966 23.376 32.687 23.376z" fill="#9adbe8"/></svg>
