<?xml version="1.0" encoding="utf-8"?>
<svg xmlns="http://www.w3.org/2000/svg" viewBox="0 0 64 64" fill="#131e29"><path d="M 27 4 C 25.897 4 25 4.897 25 6 L 25 9 L 12 9 C 10.346 9 9 10.346 9 12 C 9 12.552 9.447 13 10 13 C 10.553 13 11 12.552 11 12 C 11 11.449 11.448 11 12 11 L 25 11 L 25 14 C 25 15.103 25.897 16 27 16 L 37 16 C 38.103 16 39 15.103 39 14 L 39 6 C 39 4.897 38.103 4 37 4 L 27 4 z M 27 6 L 37 6 L 37.001953 14 L 27 14 L 27 6 z M 43 8 C 42.447 8 42 8.448 42 9 L 42 11 C 42 11.552 42.447 12 43 12 C 43.553 12 44 11.552 44 11 L 44 9 C 44 8.448 43.553 8 43 8 z M 48 8 C 47.447 8 47 8.448 47 9 L 47 11 C 47 11.552 47.447 12 48 12 C 48.553 12 49 11.552 49 11 L 49 9 C 49 8.448 48.553 8 48 8 z M 52 9 C 51.447 9 51 9.448 51 10 C 51 10.552 51.447 11 52 11 C 52.552 11 53 11.449 53 12 L 53 25 L 50 25 C 48.897 25 48 25.897 48 27 L 48 37 C 48 38.103 48.897 39 50 39 L 58 39 C 59.103 39 60 38.103 60 37 L 60 27 C 60 25.897 59.103 25 58 25 L 55 25 L 55 12 C 55 10.346 53.654 9 52 9 z M 9 15 C 8.447 15 8 15.448 8 16 C 8 16.552 8.447 17 9 17 L 11 17 C 11.553 17 12 16.552 12 16 C 12 15.448 11.553 15 11 15 L 9 15 z M 9 20 C 8.447 20 8 20.448 8 21 C 8 21.552 8.447 22 9 22 L 11 22 C 11.553 22 12 21.552 12 21 C 12 20.448 11.553 20 11 20 L 9 20 z M 6 25 C 4.897 25 4 25.897 4 27 L 4 37 C 4 38.103 4.897 39 6 39 L 9 39 L 9 52 C 9 53.654 10.346 55 12 55 C 12.553 55 13 54.553 13 54 C 13 53.447 12.553 53 12 53 C 11.448 53 11 52.552 11 52 L 11 39 L 14 39 C 15.103 39 16 38.103 16 37 L 16 27 C 16 25.897 15.103 25 14 25 L 6 25 z M 14 26.998047 L 14 37 L 6 37 L 6 27 L 14 26.998047 z M 58 26.998047 L 58 37 L 50 37 L 50 27 L 58 26.998047 z M 53 42 C 52.447 42 52 42.447 52 43 C 52 43.553 52.447 44 53 44 L 55 44 C 55.553 44 56 43.553 56 43 C 56 42.447 55.553 42 55 42 L 53 42 z M 53 47 C 52.447 47 52 47.447 52 48 C 52 48.553 52.447 49 53 49 L 55 49 C 55.553 49 56 48.553 56 48 C 56 47.447 55.553 47 55 47 L 53 47 z M 27 48 C 25.897 48 25 48.897 25 50 L 25 58 C 25 59.103 25.897 60 27 60 L 37 60 C 38.103 60 39 59.103 39 58 L 39 55 L 52 55 C 53.654 55 55 53.654 55 52 C 55 51.447 54.553 51 54 51 C 53.447 51 53 51.447 53 52 C 53 52.552 52.552 53 52 53 L 39 53 L 39 50 C 39 48.897 38.103 48 37 48 L 27 48 z M 27 50 L 37 50 L 37.001953 58 L 27 58 L 27 50 z M 16 52 C 15.447 52 15 52.447 15 53 L 15 55 C 15 55.553 15.447 56 16 56 C 16.553 56 17 55.553 17 55 L 17 53 C 17 52.447 16.553 52 16 52 z M 21 52 C 20.447 52 20 52.447 20 53 L 20 55 C 20 55.553 20.447 56 21 56 C 21.553 56 22 55.553 22 55 L 22 53 C 22 52.447 21.553 52 21 52 z" fill="#131e29"/></svg>
