<?xml version="1.0" encoding="utf-8"?>
<svg xmlns="http://www.w3.org/2000/svg" viewBox="0 0 50 50" fill="#9adbe8"><path d="M 25 2 C 19.875647 2 15.259097 3.4080653 11.947266 5.7324219 C 9.4774461 4.431147 7.2040947 4 5.5 4 A 1.0001 1.0001 0 0 0 5.2734375 4.0234375 C 4.3696685 4.0824112 3.4434032 4.4804063 2.8691406 5.3007812 C 2.2469011 6.1896949 2 7.3888889 2 9 C 2 9.8333333 1.8007813 10.433594 1.5507812 11.183594 C 1.3007812 11.933594 1 12.833333 1 14 C 1 16.020136 2.3431696 18.037197 4.6757812 18.738281 C 3.4994777 22.475926 2 28.078236 2 33 C 2 41.272438 8.727562 48 17 48 C 18.60047 48 19.719747 47.723107 20.832031 47.476562 C 21.944315 47.230018 23.083333 47 25 47 C 26.916667 47 28.055685 47.230018 29.167969 47.476562 C 30.280253 47.723107 31.39953 48 33 48 C 41.272438 48 48 41.272438 48 33 C 48 28.078236 46.500522 22.475926 45.324219 18.738281 C 47.65683 18.037197 49 16.020136 49 14 C 49 12.833333 48.699219 11.933594 48.449219 11.183594 C 48.199219 10.433594 48 9.8333333 48 9 C 48 7.3888889 47.753099 6.1896951 47.130859 5.3007812 C 46.556597 4.4804063 45.630331 4.0824112 44.726562 4.0234375 A 1.0001 1.0001 0 0 0 44.5 4 C 42.795905 4 40.522554 4.431147 38.052734 5.7324219 C 34.740903 3.4080653 30.124353 2 25 2 z M 25 4 C 29.36839 4 33.319471 5.12314 36.181641 6.8789062 C 35.226765 7.5412006 34.258114 8.3278232 33.292969 9.2929688 A 1.0001 1.0001 0 1 0 34.707031 10.707031 C 35.994591 9.4194723 37.266696 8.4883821 38.480469 7.7890625 A 1.0008432 1.0008432 0 0 0 38.550781 7.7460938 C 39.375565 7.2765738 40.167732 6.9285973 40.916016 6.6660156 C 40.589411 7.2717703 40.300948 7.9257718 40.013672 8.6152344 C 39.063914 10.894653 38.089644 13.487862 36.302734 15.28125 A 1.0007574 1.0007574 0 0 0 36.294922 15.289062 C 36.293931 15.290054 36.29396 15.291978 36.292969 15.292969 A 1.0007574 1.0007574 0 0 0 36.263672 15.322266 A 1.0001 1.0001 0 0 0 36.683594 16.966797 C 37.147459 17.233053 40.182413 18.915268 43.306641 18.986328 C 44.143944 21.620557 45.170928 25.346369 45.679688 28.962891 C 44.77852 28.366451 43.684942 28 42.5 28 C 40.166667 28 38.904299 29 35.5 29 C 32.467103 29 29.888526 26.429105 28.970703 22.757812 C 28.177877 19.587418 28.000735 12.031636 28 12 L 28 11.982422 L 28 11 C 28 9.3550302 26.64497 8 25 8 C 23.35503 8 22 9.3550302 22 11 L 22 12 C 21.999265 12.03164 21.822123 19.587418 21.029297 22.757812 C 20.111474 26.429105 17.532897 29 14.5 29 C 11.095701 29 9.8333333 28 7.5 28 C 6.3134759 28 5.2182417 28.366971 4.3164062 28.964844 C 4.8272214 25.322384 5.8529534 21.626395 6.6914062 18.988281 C 9.8189794 18.919975 12.866569 17.225971 13.318359 16.964844 A 1.0001 1.0001 0 0 0 13.732422 15.320312 A 1.0007574 1.0007574 0 0 0 13.707031 15.292969 C 11.913271 13.499208 10.937989 10.89922 9.9863281 8.6152344 C 9.6984435 7.9243113 9.4095103 7.2689141 9.0820312 6.6621094 C 9.8186998 6.9173577 10.601978 7.2633205 11.412109 7.71875 A 1.0008432 1.0008432 0 0 0 11.576172 7.8164062 C 12.771091 8.5074691 14.024124 9.4381865 15.292969 10.707031 A 1.0001 1.0001 0 1 0 16.707031 9.2929688 C 15.741886 8.3278233 14.773235 7.5412005 13.818359 6.8789062 C 16.680529 5.12314 20.63161 4 25 4 z M 5.5 6 C 6.0416667 6 6.3533931 6.1954563 6.7949219 6.7675781 C 7.2364507 7.3396999 7.6770022 8.2767585 8.1386719 9.3847656 C 8.9227842 11.266635 9.7890226 13.637468 11.380859 15.662109 C 10.162233 16.215583 8.179005 17 6.5 17 C 3.9444444 17 3 15.5 3 14 C 3 13.166667 3.1992188 12.566406 3.4492188 11.816406 C 3.6992188 11.066406 4 10.166667 4 9 C 4 7.6111111 4.2530989 6.8103049 4.5058594 6.4492188 C 4.7586198 6.0881324 4.9722222 6 5.5 6 z M 44.5 6 C 45.027778 6 45.24138 6.0881324 45.494141 6.4492188 C 45.746901 6.8103051 46 7.6111111 46 9 C 46 10.166667 46.300781 11.066406 46.550781 11.816406 C 46.800781 12.566406 47 13.166667 47 14 C 47 15.5 46.055556 17 43.5 17 C 41.820995 17 39.837767 16.215583 38.619141 15.662109 C 40.210978 13.637468 41.077216 11.266635 41.861328 9.3847656 C 42.322998 8.2767585 42.763549 7.3396999 43.205078 6.7675781 C 43.646607 6.1954563 43.958333 6 44.5 6 z M 25 10 C 25.56503 10 26 10.43497 26 11 L 26 12.007812 L 26 12.017578 C 26 12.017578 26.08178 19.453221 27.029297 23.242188 C 28.111474 27.570861 31.352897 31 35.5 31 C 39.275701 31 40.833333 30 42.5 30 C 44.448447 30 46 31.671667 46 33 C 46 40.191562 40.191562 46 33 46 C 31.62347 46 30.743075 45.776893 29.599609 45.523438 C 28.456144 45.269982 27.083333 45 25 45 C 22.916667 45 21.543856 45.269982 20.400391 45.523438 C 19.256925 45.776893 18.37653 46 17 46 C 9.808438 46 4 40.191562 4 33 C 4 31.671667 5.5515526 30 7.5 30 C 9.1666667 30 10.724299 31 14.5 31 C 18.647103 31 21.888526 27.570895 22.970703 23.242188 C 23.918217 19.453221 24 12.017578 24 12.017578 L 24 12.007812 L 24 11 C 24 10.43497 24.43497 10 25 10 z M 15.5 20 A 1.5 3 0 0 0 14 23 A 1.5 3 0 0 0 15.5 26 A 1.5 3 0 0 0 17 23 A 1.5 3 0 0 0 15.5 20 z M 34.5 20 A 1.5 3 0 0 0 33 23 A 1.5 3 0 0 0 34.5 26 A 1.5 3 0 0 0 36 23 A 1.5 3 0 0 0 34.5 20 z M 21.990234 32.992188 A 1.0001 1.0001 0 0 0 21.445312 34.832031 L 24 36.535156 L 24 39 C 24 39.527778 23.855335 39.813384 23.626953 40.070312 C 23.398571 40.327242 23.045826 40.540432 22.648438 40.689453 C 21.85366 40.987495 21 41 21 41 A 1.0001 1.0001 0 1 0 21 43 C 21 43 22.14634 43.0125 23.351562 42.560547 C 23.909054 42.351488 24.500916 42.028149 25 41.517578 C 25.499084 42.028149 26.090945 42.351488 26.648438 42.560547 C 27.85366 43.012505 29 43 29 43 A 1.0001 1.0001 0 1 0 29 41 C 29 41 28.14634 40.9875 27.351562 40.689453 C 26.954174 40.540432 26.601429 40.327242 26.373047 40.070312 C 26.144665 39.813384 26 39.527778 26 39 L 26 36.535156 L 28.554688 34.832031 A 1.0001 1.0001 0 1 0 27.445312 33.167969 L 25 34.798828 L 22.554688 33.167969 A 1.0001 1.0001 0 0 0 21.990234 32.992188 z" fill="#9adbe8"/></svg>
